<svg width="190" height="30" viewBox="0 0 190 30" fill="none" xmlns="http://www.w3.org/2000/svg">
<circle cx="15" cy="15" r="15" fill="#0029FF"/>
<circle cx="8.5" cy="14.5" r="1.5" fill="white"/>
<circle opacity="0.1" cx="9.5" cy="10.5" r="1.5" fill="white"/>
<circle opacity="0.1" cx="9.5" cy="18.5" r="1.5" fill="white"/>
<circle opacity="0.1" cx="21.5" cy="18.5" r="1.5" fill="white"/>
<circle opacity="0.1" cx="21.5" cy="10.5" r="1.5" fill="white"/>
<circle cx="12.5" cy="21.5" r="1.5" fill="white"/>
<circle cx="18.5" cy="21.5" r="1.5" fill="white"/>
<circle cx="22.5" cy="14.5" r="1.5" fill="white"/>
<circle cx="15.5" cy="14.5" r="1.5" fill="white"/>
<circle cx="18.5" cy="7.5" r="1.5" fill="white"/>
<circle cx="12.5" cy="7.5" r="1.5" fill="white"/>
<path d="M8.5 14.5H15.5L18.5 21.5H12.5" stroke="white"/>
<path d="M12.5 7.5H18.5" stroke="white"/>
<path d="M45.88 8.06H41.54V22H45.88C50.46 22 53.28 19.38 53.28 15.06C53.28 10.74 50.46 8.06 45.88 8.06ZM43.36 20.5V9.54H45.88C49.52 9.54 51.42 11.66 51.42 15.06C51.42 18.46 49.52 20.5 45.88 20.5H43.36ZM63.1806 8.04H55.6806V22H63.1806V20.5H57.5006V15.7H62.5806V14.2H57.5006V9.54H63.1806V8.04ZM73.4345 8.04H65.9345V22H73.4345V20.5H67.7545V15.7H72.8345V14.2H67.7545V9.54H73.4345V8.04ZM78.0084 14.68V9.56H80.6884C82.7684 9.56 83.6484 10.52 83.6484 12.14C83.6484 13.7 82.7684 14.68 80.6884 14.68H78.0084ZM85.5084 12.14C85.5084 9.86 83.9684 8.06 80.6884 8.06H76.1884V22H78.0084V16.18H80.6884C84.1484 16.18 85.5084 14.26 85.5084 12.14Z" fill="black"/>
<path d="M92.0425 10.7H95.7625V22H99.1825V10.7H102.903V7.96H92.0425V10.7ZM113.359 22H116.779V7.96H113.359V13.46H108.039V7.96H104.619V22H108.039V16.22H113.359V22ZM133.068 14.94C133.068 10.72 129.888 7.76 125.888 7.76C121.908 7.76 118.668 10.72 118.668 14.94C118.668 19.16 121.908 22.14 125.888 22.14C129.868 22.14 133.068 19.16 133.068 14.94ZM122.168 14.94C122.168 12.44 123.608 10.86 125.888 10.86C128.128 10.86 129.588 12.44 129.588 14.94C129.588 17.4 128.128 19.02 125.888 19.02C123.608 19.02 122.168 17.4 122.168 14.94ZM134.91 16.34C134.91 20.22 137.45 22.14 140.71 22.14C143.95 22.14 146.67 20.22 146.67 16.34V7.96H143.25V16.36C143.25 18.02 142.39 18.98 140.77 18.98C139.15 18.98 138.33 18.02 138.33 16.36V7.96H134.91V16.34ZM155.632 7.8C151.432 7.8 148.492 10.76 148.492 14.96C148.492 19.16 151.452 22.1 155.652 22.1C159.352 22.1 161.692 19.68 162.412 17.26V14.08H154.972V16.6H159.312C158.792 18.18 157.612 19.08 155.912 19.08C153.452 19.08 151.972 17.56 151.972 14.96C151.972 12.52 153.432 10.96 155.632 10.96C156.912 10.96 157.872 11.46 158.392 12.4H162.172C161.432 9.52 158.992 7.8 155.632 7.8ZM173.046 22H176.466V7.96H173.046V13.46H167.726V7.96H164.306V22H167.726V16.22H173.046V22ZM178.175 10.7H181.895V22H185.315V10.7H189.035V7.96H178.175V10.7Z" fill="#0029FF"/>
</svg>
